<svg xmlns="http://www.w3.org/2000/svg" xmlns:xlink="http://www.w3.org/1999/xlink" xmlns:fi="http://pattern.flaticon.com/" x="0" y="0" width="300" height="150" viewBox="0 0 700 350"><rect x="0px" y="0px" width="100%" height="100%" opacity="1" fill="#ffffff"/><defs><path d="M506.697,236.319c-0.184-0.176-171.259-85.861-171.259-85.861c-1.479-0.74-3.115-1.125-4.771-1.125H288    c-5.896,0-10.667,4.771-10.667,10.667v21.333c0,5.896,4.771,10.667,10.667,10.667s10.667-4.771,10.667-10.667v-10.667h29.479    l128,64H55.854l128-64h29.479v10.667c0,5.896,4.771,10.667,10.667,10.667s10.667-4.771,10.667-10.667V160    c0-5.896-4.771-10.667-10.667-10.667h-42.667c-1.656,0-3.292,0.385-4.771,1.125c0,0-171.108,85.698-171.284,85.878    C2.178,238.202,0,241.448,0,245.333V288c0,5.896,4.771,10.667,10.667,10.667h10.667v10.667C21.333,315.229,26.104,320,32,320    h10.667v10.667c0,5.896,4.771,10.667,10.667,10.667H64V352c0,5.896,4.771,10.667,10.667,10.667h106.667    c5.896,0,10.667-4.771,10.667-10.667v-10.667h10.667c5.896,0,10.667-4.771,10.667-10.667V320H224    c5.896,0,10.667-4.771,10.667-10.667V256h42.667v53.333c0,5.896,4.771,10.667,10.667,10.667h10.667v10.667    c0,5.896,4.771,10.667,10.667,10.667H320V352c0,5.896,4.771,10.667,10.667,10.667h106.667c5.896,0,10.667-4.771,10.667-10.667    v-10.667h10.667c5.896,0,10.667-4.771,10.667-10.667V320H480c5.896,0,10.667-4.771,10.667-10.667v-10.667h10.667    c5.896,0,10.667-4.771,10.667-10.667v-42.667C512,241.437,509.811,238.18,506.697,236.319z M128,330.667h-21.333v-21.333H85.333    V288H64v-21.333h21.333V288h21.333v21.333H128V330.667z M384,330.667h-21.333v-21.333h-21.333V288H320v-21.333h21.333V288h21.333    v21.333H384V330.667z" transform="matrix(-0.1171875 0 0 0.1171875 136 139)" id="L1_0"/><g transform="matrix(0.1171875 0 0 0.1171875 237 71)" id="L1_1"><rect x="320px" y="266px" width="21px" height="21px"/><rect x="341px" y="288px" width="21px" height="21px"/><rect x="362px" y="309px" width="21px" height="21px"/><rect x="64px" y="266px" width="21px" height="21px"/><rect x="85px" y="288px" width="21px" height="21px"/><rect x="106px" y="309px" width="21px" height="21px"/><path d="M506.056,235.888l0.048-0.096l-170.667-85.333c-1.479-0.74-3.115-1.125-4.771-1.125H288     c-5.896,0-10.667,4.771-10.667,10.667v21.333c0,5.896,4.771,10.667,10.667,10.667s10.667-4.771,10.667-10.667v-10.667h29.479     l128,64H55.854l128-64h29.479v10.667c0,5.896,4.771,10.667,10.667,10.667s10.667-4.771,10.667-10.667V160     c0-5.896-4.771-10.667-10.667-10.667h-42.667c-1.656,0-3.292,0.385-4.771,1.125L5.896,235.792l0.026,0.111     C2.445,237.659,0,241.168,0,245.333V288c0,5.896,4.771,10.667,10.667,10.667h10.667v10.667C21.333,315.229,26.104,320,32,320     h10.667v10.667c0,5.896,4.771,10.667,10.667,10.667H64V352c0,5.896,4.771,10.667,10.667,10.667h106.667     c5.896,0,10.667-4.771,10.667-10.667v-10.667h10.667c5.896,0,10.667-4.771,10.667-10.667V320H224     c5.896,0,10.667-4.771,10.667-10.667V256h42.667v53.333c0,5.896,4.771,10.667,10.667,10.667h10.667v10.667     c0,5.896,4.771,10.667,10.667,10.667H320V352c0,5.896,4.771,10.667,10.667,10.667h106.667c5.896,0,10.667-4.771,10.667-10.667     v-10.667h10.667c5.896,0,10.667-4.771,10.667-10.667V320H480c5.896,0,10.667-4.771,10.667-10.667v-10.667h10.667     c5.896,0,10.667-4.771,10.667-10.667v-42.667C512,241.159,509.546,237.641,506.056,235.888z M213.333,298.667h-10.667     c-5.896,0-10.667,4.771-10.667,10.667V320h-10.667c-5.896,0-10.667,4.771-10.667,10.667v10.667H85.333v-10.667     c0-5.896-4.771-10.667-10.667-10.667H64v-10.667c0-5.896-4.771-10.667-10.667-10.667H42.667V288     c0-5.896-4.771-10.667-10.667-10.667H21.333V256h192V298.667z M490.667,277.333H480c-5.896,0-10.667,4.771-10.667,10.667v10.667     h-10.667c-5.896,0-10.667,4.771-10.667,10.667V320h-10.667c-5.896,0-10.667,4.771-10.667,10.667v10.667h-85.333v-10.667     c0-5.896-4.771-10.667-10.667-10.667H320v-10.667c0-5.896-4.771-10.667-10.667-10.667h-10.667V256h192V277.333z"/></g><g transform="matrix(0.1171875 0 0 0.1171875 218 218)"><rect x="320px" y="266px" width="21px" height="21px"/><rect x="341px" y="288px" width="21px" height="21px"/><rect x="362px" y="309px" width="21px" height="21px"/><rect x="64px" y="266px" width="21px" height="21px"/><rect x="85px" y="288px" width="21px" height="21px"/><rect x="106px" y="309px" width="21px" height="21px"/><path d="M506.056,235.888l0.048-0.096l-170.667-85.333c-1.479-0.74-3.115-1.125-4.771-1.125H288     c-5.896,0-10.667,4.771-10.667,10.667v21.333c0,5.896,4.771,10.667,10.667,10.667s10.667-4.771,10.667-10.667v-10.667h29.479     l128,64H55.854l128-64h29.479v10.667c0,5.896,4.771,10.667,10.667,10.667s10.667-4.771,10.667-10.667V160     c0-5.896-4.771-10.667-10.667-10.667h-42.667c-1.656,0-3.292,0.385-4.771,1.125L5.896,235.792l0.026,0.111     C2.445,237.659,0,241.168,0,245.333V288c0,5.896,4.771,10.667,10.667,10.667h10.667v10.667C21.333,315.229,26.104,320,32,320     h10.667v10.667c0,5.896,4.771,10.667,10.667,10.667H64V352c0,5.896,4.771,10.667,10.667,10.667h106.667     c5.896,0,10.667-4.771,10.667-10.667v-10.667h10.667c5.896,0,10.667-4.771,10.667-10.667V320H224     c5.896,0,10.667-4.771,10.667-10.667V256h42.667v53.333c0,5.896,4.771,10.667,10.667,10.667h10.667v10.667     c0,5.896,4.771,10.667,10.667,10.667H320V352c0,5.896,4.771,10.667,10.667,10.667h106.667c5.896,0,10.667-4.771,10.667-10.667     v-10.667h10.667c5.896,0,10.667-4.771,10.667-10.667V320H480c5.896,0,10.667-4.771,10.667-10.667v-10.667h10.667     c5.896,0,10.667-4.771,10.667-10.667v-42.667C512,241.159,509.546,237.641,506.056,235.888z M213.333,298.667h-10.667     c-5.896,0-10.667,4.771-10.667,10.667V320h-10.667c-5.896,0-10.667,4.771-10.667,10.667v10.667H85.333v-10.667     c0-5.896-4.771-10.667-10.667-10.667H64v-10.667c0-5.896-4.771-10.667-10.667-10.667H42.667V288     c0-5.896-4.771-10.667-10.667-10.667H21.333V256h192V298.667z M490.667,277.333H480c-5.896,0-10.667,4.771-10.667,10.667v10.667     h-10.667c-5.896,0-10.667,4.771-10.667,10.667V320h-10.667c-5.896,0-10.667,4.771-10.667,10.667v10.667h-85.333v-10.667     c0-5.896-4.771-10.667-10.667-10.667H320v-10.667c0-5.896-4.771-10.667-10.667-10.667h-10.667V256h192V277.333z"/></g><path d="M506.697,236.319c-0.184-0.176-171.259-85.861-171.259-85.861c-1.479-0.74-3.115-1.125-4.771-1.125H288    c-5.896,0-10.667,4.771-10.667,10.667v21.333c0,5.896,4.771,10.667,10.667,10.667s10.667-4.771,10.667-10.667v-10.667h29.479    l128,64H55.854l128-64h29.479v10.667c0,5.896,4.771,10.667,10.667,10.667s10.667-4.771,10.667-10.667V160    c0-5.896-4.771-10.667-10.667-10.667h-42.667c-1.656,0-3.292,0.385-4.771,1.125c0,0-171.108,85.698-171.284,85.878    C2.178,238.202,0,241.448,0,245.333V288c0,5.896,4.771,10.667,10.667,10.667h10.667v10.667C21.333,315.229,26.104,320,32,320    h10.667v10.667c0,5.896,4.771,10.667,10.667,10.667H64V352c0,5.896,4.771,10.667,10.667,10.667h106.667    c5.896,0,10.667-4.771,10.667-10.667v-10.667h10.667c5.896,0,10.667-4.771,10.667-10.667V320H224    c5.896,0,10.667-4.771,10.667-10.667V256h42.667v53.333c0,5.896,4.771,10.667,10.667,10.667h10.667v10.667    c0,5.896,4.771,10.667,10.667,10.667H320V352c0,5.896,4.771,10.667,10.667,10.667h106.667c5.896,0,10.667-4.771,10.667-10.667    v-10.667h10.667c5.896,0,10.667-4.771,10.667-10.667V320H480c5.896,0,10.667-4.771,10.667-10.667v-10.667h10.667    c5.896,0,10.667-4.771,10.667-10.667v-42.667C512,241.437,509.811,238.18,506.697,236.319z M128,330.667h-21.333v-21.333H85.333    V288H64v-21.333h21.333V288h21.333v21.333H128V330.667z M384,330.667h-21.333v-21.333h-21.333V288H320v-21.333h21.333V288h21.333    v21.333H384V330.667z" transform="matrix(-0.1171875 0 0 0.1171875 113 293)"/></defs><g fi:class="KUsePattern" opacity="1"><pattern id="pattern_L1_0" width="350" height="350" patternUnits="userSpaceOnUse"><use xlink:href="#L1_0" x="-350" y="-350"/><use xlink:href="#L1_0" x="0" y="-350"/><use xlink:href="#L1_0" x="350" y="-350"/><use xlink:href="#L1_0" x="-350" y="0"/><use xlink:href="#L1_0" x="0" y="0"/><use xlink:href="#L1_0" x="350" y="0"/><use xlink:href="#L1_0" x="-350" y="350"/><use xlink:href="#L1_0" x="0" y="350"/><use xlink:href="#L1_0" x="350" y="350"/></pattern><rect x="0" y="0" width="100%" height="100%" fill="url(#pattern_L1_0)"/></g><g fi:class="KUsePattern"><pattern id="pattern_L1_1" width="350" height="350" patternUnits="userSpaceOnUse"><use xlink:href="#L1_1" x="-350" y="-350"/><use xlink:href="#L1_1" x="0" y="-350"/><use xlink:href="#L1_1" x="350" y="-350"/><use xlink:href="#L1_1" x="-350" y="0"/><use xlink:href="#L1_1" x="0" y="0"/><use xlink:href="#L1_1" x="350" y="0"/><use xlink:href="#L1_1" x="-350" y="350"/><use xlink:href="#L1_1" x="0" y="350"/><use xlink:href="#L1_1" x="350" y="350"/></pattern><rect x="0" y="0" width="100%" height="100%" fill="url(#pattern_L1_1)"/></g><g fi:class="KUsePattern" transform="matrix(1 0 0 1 20 20)"><pattern id="pattern_UNKNOWN" width="350" height="350" patternUnits="userSpaceOnUse"><use xlink:href="#UNKNOWN" x="-350" y="-350"/><use xlink:href="#UNKNOWN" x="0" y="-350"/><use xlink:href="#UNKNOWN" x="350" y="-350"/><use xlink:href="#UNKNOWN" x="-350" y="0"/><use xlink:href="#UNKNOWN" x="0" y="0"/><use xlink:href="#UNKNOWN" x="350" y="0"/><use xlink:href="#UNKNOWN" x="-350" y="350"/><use xlink:href="#UNKNOWN" x="0" y="350"/><use xlink:href="#UNKNOWN" x="350" y="350"/></pattern><rect x="0" y="0" width="100%" height="100%" fill="url(#pattern_UNKNOWN)"/></g><g fi:class="KUsePattern" transform="matrix(1 0 0 1 20 20)" opacity="1"><pattern id="pattern_UNKNOWN" width="350" height="350" patternUnits="userSpaceOnUse"><use xlink:href="#UNKNOWN" x="-350" y="-350"/><use xlink:href="#UNKNOWN" x="0" y="-350"/><use xlink:href="#UNKNOWN" x="350" y="-350"/><use xlink:href="#UNKNOWN" x="-350" y="0"/><use xlink:href="#UNKNOWN" x="0" y="0"/><use xlink:href="#UNKNOWN" x="350" y="0"/><use xlink:href="#UNKNOWN" x="-350" y="350"/><use xlink:href="#UNKNOWN" x="0" y="350"/><use xlink:href="#UNKNOWN" x="350" y="350"/></pattern><rect x="0" y="0" width="100%" height="100%" fill="url(#pattern_UNKNOWN)"/></g></svg>